<svg overflow="visible" style="display: block;" viewBox="0 0 72.0224 83.0778" fill="none" xmlns="http://www.w3.org/2000/svg">
<g id="Frame 484558">
<g id="Frame 484796">
<path id="Vector" d="M65.6364 2.67683C65.6364 2.74885 65.6364 2.80887 65.6364 2.86889C65.6364 2.91691 65.6364 2.96492 65.6124 2.98893C65.6124 3.01294 65.5884 3.03694 65.5764 3.06095C65.5644 3.07295 65.5404 3.08496 65.5164 3.08496C65.4924 3.08496 65.4563 3.08496 65.4203 3.06095C65.3843 3.04894 65.3363 3.02494 65.2883 3.01294C65.2403 3.00094 65.1803 2.98893 65.1202 2.96492C65.0602 2.95292 64.9882 2.94091 64.9162 2.94091C64.8321 2.94091 64.7481 2.95292 64.6641 2.98893C64.5801 3.02494 64.496 3.08496 64.412 3.15698C64.328 3.24101 64.232 3.33704 64.1239 3.46908C64.0279 3.60112 63.9199 3.75717 63.7998 3.94923V6.97417C63.7998 6.97417 63.7998 7.02219 63.7758 7.0462C63.7638 7.07021 63.7398 7.0822 63.7158 7.0942C63.6798 7.10621 63.6438 7.11822 63.5838 7.13022C63.5237 7.13022 63.4637 7.13022 63.3797 7.13022C63.2957 7.13022 63.2356 7.13022 63.1756 7.13022C63.1156 7.13022 63.0796 7.11821 63.0436 7.0942C63.0076 7.0822 62.9836 7.07021 62.9716 7.0462C62.9716 7.02219 62.9596 7.01018 62.9596 6.97417V2.37674C62.9596 2.37674 62.9596 2.32872 62.9716 2.30472C62.9716 2.28071 63.0076 2.2687 63.0316 2.2567C63.0676 2.2447 63.1036 2.23269 63.1516 2.22069C63.1996 2.22069 63.2597 2.22069 63.3437 2.22069C63.4277 2.22069 63.4757 2.22069 63.5357 2.22069C63.5838 2.22069 63.6198 2.23269 63.6558 2.2567C63.6798 2.2687 63.7038 2.29271 63.7158 2.30472C63.7278 2.31672 63.7278 2.34072 63.7278 2.37674V3.04895C63.8478 2.86889 63.9679 2.71284 64.0879 2.60481C64.1959 2.48477 64.304 2.40075 64.4 2.32873C64.496 2.25671 64.5921 2.22069 64.6881 2.19669C64.7841 2.17268 64.8802 2.16067 64.9762 2.16067C65.0242 2.16067 65.0722 2.16067 65.1322 2.16067C65.1923 2.16067 65.2523 2.17268 65.3123 2.18468C65.3723 2.19668 65.4323 2.20869 65.4804 2.2327C65.5284 2.2447 65.5644 2.26871 65.5884 2.28071C65.6124 2.29272 65.6244 2.31672 65.6244 2.32873C65.6244 2.34073 65.6364 2.36473 65.6364 2.38874C65.6364 2.41275 65.6364 2.44876 65.6364 2.49678C65.6364 2.54479 65.6364 2.60481 65.6364 2.68883M60.8229 4.22531C60.8229 3.78117 60.7389 3.43307 60.5348 3.18099C60.3307 2.92891 60.0186 2.80887 59.6225 2.80887C59.4185 2.80887 59.2384 2.84489 59.0824 2.92892C58.9263 3.01294 58.7943 3.10896 58.6862 3.24101C58.5782 3.37305 58.4942 3.5171 58.4462 3.69715C58.3861 3.86521 58.3501 4.04526 58.3501 4.23732H60.8349L60.8229 4.22531ZM61.6752 4.47739C61.6752 4.60943 61.6392 4.70547 61.5791 4.76549C61.5071 4.8255 61.4351 4.84951 61.3511 4.84951H58.3381C58.3381 5.10159 58.3621 5.32966 58.4101 5.53372C58.4582 5.73779 58.5422 5.91784 58.6622 6.06188C58.7823 6.20593 58.9383 6.32597 59.1304 6.398C59.3224 6.48202 59.5505 6.51803 59.8266 6.51803C60.0427 6.51803 60.2347 6.49402 60.4028 6.47001C60.5708 6.434 60.7149 6.39799 60.8469 6.34998C60.9669 6.30196 61.075 6.26595 61.147 6.22994C61.231 6.19393 61.291 6.18193 61.3271 6.18193C61.3511 6.18193 61.3751 6.18192 61.3871 6.19392C61.4111 6.19392 61.4231 6.21793 61.4351 6.24194C61.4351 6.26595 61.4471 6.30196 61.4591 6.33797C61.4591 6.38599 61.4591 6.434 61.4591 6.49402C61.4591 6.54203 61.4591 6.57805 61.4591 6.61406C61.4591 6.65007 61.4591 6.67408 61.4471 6.69809C61.4471 6.7221 61.4351 6.7461 61.4231 6.77011C61.4231 6.79412 61.3991 6.80612 61.3751 6.83013C61.3511 6.85414 61.303 6.87814 61.207 6.92615C61.111 6.97417 60.991 7.01019 60.8469 7.0462C60.7029 7.08221 60.5348 7.11822 60.3427 7.15423C60.1507 7.19024 59.9466 7.20224 59.7306 7.20224C59.3584 7.20224 59.0223 7.15423 58.7342 7.0462C58.4462 6.93816 58.2061 6.78211 58.014 6.57804C57.822 6.37398 57.6779 6.10991 57.5699 5.79781C57.4739 5.48571 57.4258 5.12559 57.4258 4.70546C57.4258 4.28533 57.4739 3.96123 57.5819 3.63713C57.6779 3.32503 57.834 3.06095 58.026 2.83288C58.2181 2.61682 58.4462 2.44877 58.7222 2.32873C58.9983 2.20869 59.2984 2.14867 59.6345 2.14867C59.9946 2.14867 60.3067 2.20869 60.5588 2.31672C60.8109 2.43676 61.015 2.59281 61.183 2.78487C61.3511 2.97693 61.4711 3.205 61.5431 3.46908C61.6151 3.73316 61.6632 4.00924 61.6632 4.30934V4.46539L61.6752 4.47739ZM56.6336 2.36474C56.6336 2.36474 56.6336 2.41275 56.6336 2.44876C56.6336 2.48478 56.6096 2.52079 56.5976 2.58081L55.2412 6.95017C55.2412 6.95017 55.2172 7.02219 55.1931 7.0462C55.1691 7.07021 55.1451 7.09421 55.0971 7.10621C55.0611 7.11821 55.0011 7.13022 54.9411 7.13022C54.869 7.13022 54.785 7.13022 54.689 7.13022C54.593 7.13022 54.4969 7.13022 54.4249 7.13022C54.3529 7.13022 54.2929 7.11821 54.2569 7.0942C54.2088 7.0822 54.1848 7.0582 54.1608 7.03419C54.1368 7.01018 54.1248 6.98618 54.1128 6.95017L53.1525 3.61313V3.56511L53.1285 3.61313L52.2402 6.95017C52.2402 6.95017 52.2162 7.02219 52.1922 7.0462C52.1682 7.07021 52.1322 7.09421 52.0962 7.10621C52.0482 7.11821 52.0001 7.13022 51.9281 7.13022C51.8561 7.13022 51.7721 7.13022 51.676 7.13022C51.58 7.13022 51.484 7.13022 51.424 7.13022C51.3519 7.13022 51.3039 7.11821 51.2559 7.0942C51.2079 7.0822 51.1839 7.0582 51.1599 7.03419C51.1359 7.01018 51.1239 6.98618 51.1119 6.95017L49.7675 2.58081C49.7675 2.58081 49.7434 2.48478 49.7314 2.44876C49.7314 2.41275 49.7314 2.38875 49.7314 2.36474C49.7314 2.32873 49.7314 2.30471 49.7555 2.29271C49.7675 2.2687 49.7915 2.25671 49.8275 2.2447C49.8635 2.2447 49.8995 2.22069 49.9595 2.22069C50.0195 2.22069 50.0796 2.22069 50.1636 2.22069C50.2596 2.22069 50.3316 2.22069 50.3916 2.22069C50.4517 2.22069 50.4877 2.2327 50.5237 2.2447C50.5597 2.2447 50.5717 2.2687 50.5957 2.29271C50.6077 2.31672 50.6197 2.34072 50.6317 2.37674L51.7361 6.15791V6.20593L51.7601 6.15791L52.7804 2.37674C52.7804 2.37674 52.7924 2.31672 52.8164 2.29271C52.8284 2.2687 52.8524 2.25671 52.8884 2.2447C52.9244 2.2327 52.9604 2.22069 53.0085 2.22069C53.0565 2.22069 53.1285 2.22069 53.2125 2.22069C53.2966 2.22069 53.3566 2.22069 53.4166 2.22069C53.4646 2.22069 53.5126 2.2327 53.5366 2.2447C53.5726 2.2447 53.5846 2.2687 53.6087 2.29271C53.6207 2.31672 53.6327 2.34073 53.6447 2.36474L54.737 6.15791V6.20593L54.749 6.15791L55.8413 2.37674C55.8413 2.37674 55.8534 2.31672 55.8774 2.29271C55.8894 2.2687 55.9134 2.25671 55.9494 2.2447C55.9854 2.2327 56.0214 2.22069 56.0814 2.22069C56.1414 2.22069 56.2135 2.22069 56.2975 2.22069C56.3815 2.22069 56.4415 2.22069 56.4896 2.22069C56.5376 2.22069 56.5736 2.22069 56.6096 2.2447C56.6336 2.25671 56.6576 2.2687 56.6696 2.29271C56.6696 2.30471 56.6816 2.32873 56.6816 2.36474H56.6336ZM47.7748 4.68146C47.7748 4.42938 47.7508 4.20131 47.7028 3.97323C47.6548 3.75717 47.5828 3.55311 47.4747 3.38505C47.3667 3.217 47.2227 3.08496 47.0426 2.98893C46.8625 2.8929 46.6345 2.84489 46.3704 2.84489C46.1183 2.84489 45.9143 2.8929 45.7342 2.97692C45.5541 3.06095 45.4101 3.193 45.2901 3.34904C45.17 3.50509 45.086 3.69715 45.038 3.92522C44.978 4.14129 44.954 4.39337 44.954 4.64545C44.954 4.89753 44.978 5.1376 45.026 5.35367C45.074 5.56973 45.146 5.7738 45.2541 5.92985C45.3621 6.0979 45.5061 6.22994 45.6862 6.32597C45.8662 6.422 46.0943 6.47001 46.3584 6.47001C46.5985 6.47001 46.8145 6.422 46.9946 6.33797C47.1746 6.25395 47.3187 6.12191 47.4387 5.96586C47.5588 5.80981 47.6428 5.61775 47.6908 5.38968C47.7508 5.17361 47.7748 4.92153 47.7748 4.65745V4.68146ZM48.6631 4.62144C48.6631 4.99355 48.6151 5.34166 48.5191 5.65376C48.423 5.96586 48.279 6.24194 48.0749 6.47001C47.8829 6.69809 47.6308 6.87814 47.3427 6.99818C47.0546 7.13022 46.7065 7.19024 46.3224 7.19024C45.9383 7.19024 45.6142 7.13022 45.3381 7.02219C45.062 6.91415 44.8219 6.7461 44.6419 6.53004C44.4498 6.31397 44.3178 6.04989 44.2217 5.74979C44.1257 5.43769 44.0897 5.10159 44.0897 4.70546C44.0897 4.30934 44.1377 3.98524 44.2337 3.67314C44.3298 3.36104 44.4738 3.08496 44.6779 2.85689C44.8699 2.62882 45.122 2.44877 45.4101 2.32873C45.6982 2.20869 46.0463 2.13666 46.4304 2.13666C46.8145 2.13666 47.1386 2.19668 47.4147 2.30472C47.6908 2.41275 47.9309 2.58081 48.1109 2.79687C48.303 3.01294 48.435 3.27702 48.5311 3.57711C48.6271 3.88921 48.6751 4.22531 48.6751 4.60943L48.6631 4.62144ZM43.2974 6.71009C43.2974 6.78211 43.2974 6.83012 43.2974 6.87814C43.2974 6.92615 43.2854 6.96217 43.2614 6.99818C43.2494 7.03419 43.2254 7.0582 43.2014 7.0702C43.1774 7.08221 43.1534 7.0942 43.1174 7.0942H40.2005C40.1165 7.0942 40.0444 7.0702 39.9724 7.01018C39.9004 6.96216 39.8644 6.86614 39.8644 6.7341V0.62419C39.8644 0.62419 39.8644 0.576178 39.8884 0.552171C39.9004 0.528163 39.9244 0.516159 39.9604 0.504155C39.9964 0.504155 40.0444 0.480149 40.0924 0.468145C40.1525 0.468145 40.2245 0.456139 40.2965 0.456139C40.3685 0.456139 40.4526 0.456141 40.5126 0.468145C40.5726 0.468145 40.6086 0.492151 40.6446 0.504155C40.6806 0.504155 40.7046 0.528163 40.7166 0.552171C40.7286 0.576178 40.7406 0.600183 40.7406 0.62419V6.33797H43.1054C43.1054 6.33797 43.1654 6.33797 43.1894 6.36198C43.2134 6.37398 43.2254 6.39799 43.2494 6.422C43.2614 6.44601 43.2734 6.49402 43.2854 6.54203C43.2854 6.59005 43.2854 6.65007 43.2854 6.71009H43.2974ZM36.6234 2.67683C36.6234 2.74885 36.6234 2.80887 36.6234 2.86889C36.6234 2.91691 36.6234 2.96492 36.5994 2.98893C36.5994 3.01294 36.5753 3.03694 36.5633 3.06095C36.5513 3.07295 36.5273 3.08496 36.5033 3.08496C36.4793 3.08496 36.4433 3.08496 36.4073 3.06095C36.3713 3.04894 36.3233 3.02494 36.2753 3.01294C36.2272 3.00094 36.1672 2.98893 36.1072 2.96492C36.0472 2.95292 35.9752 2.94091 35.9031 2.94091C35.8191 2.94091 35.7351 2.95292 35.6511 2.98893C35.567 3.02494 35.483 3.08496 35.399 3.15698C35.315 3.24101 35.2189 3.33704 35.1109 3.46908C35.0149 3.60112 34.9068 3.75717 34.7868 3.94923V6.97417C34.7868 6.97417 34.7868 7.02219 34.7628 7.0462C34.7508 7.07021 34.7268 7.0822 34.7028 7.0942C34.6668 7.10621 34.6307 7.11822 34.5707 7.13022C34.5107 7.13022 34.4507 7.13022 34.3667 7.13022C34.2826 7.13022 34.2226 7.13022 34.1626 7.13022C34.1146 7.13022 34.0666 7.11821 34.0306 7.0942C33.9945 7.0822 33.9705 7.07021 33.9585 7.0462C33.9585 7.02219 33.9465 7.01018 33.9465 6.97417V2.37674C33.9465 2.37674 33.9465 2.32872 33.9585 2.30472C33.9585 2.28071 33.9945 2.2687 34.0186 2.2567C34.0546 2.2447 34.0906 2.23269 34.1386 2.22069C34.1866 2.22069 34.2466 2.22069 34.3306 2.22069C34.4147 2.22069 34.4627 2.22069 34.5227 2.22069C34.5707 2.22069 34.6067 2.23269 34.6427 2.2567C34.6668 2.2687 34.6908 2.29271 34.7028 2.30472C34.7028 2.32872 34.7148 2.34072 34.7148 2.37674V3.04895C34.8348 2.86889 34.9548 2.71284 35.0749 2.60481C35.1829 2.48477 35.2909 2.40075 35.387 2.32873C35.483 2.25671 35.579 2.22069 35.6751 2.19669C35.7711 2.17268 35.8671 2.16067 35.9632 2.16067C36.0112 2.16067 36.0592 2.16067 36.1192 2.16067C36.1792 2.16067 36.2392 2.17268 36.2993 2.18468C36.3593 2.19668 36.4193 2.20869 36.4673 2.2327C36.5153 2.2447 36.5513 2.26871 36.5753 2.28071C36.5994 2.29272 36.6114 2.31672 36.6114 2.32873C36.6114 2.34073 36.6234 2.36473 36.6234 2.38874C36.6234 2.41275 36.6234 2.44876 36.6234 2.49678C36.6234 2.54479 36.6234 2.60481 36.6234 2.68883V2.67683ZM31.8099 4.22531C31.8099 3.78117 31.7258 3.43307 31.5218 3.18099C31.3177 2.92891 31.0056 2.80887 30.6095 2.80887C30.4054 2.80887 30.2254 2.84489 30.0693 2.92892C29.9133 3.01294 29.7812 3.10896 29.6732 3.24101C29.5652 3.37305 29.4811 3.5171 29.4331 3.69715C29.3731 3.86521 29.3371 4.04526 29.3371 4.23732H31.8219L31.8099 4.22531ZM32.6501 4.47739C32.6501 4.60943 32.6141 4.70547 32.5541 4.76549C32.4821 4.8255 32.41 4.84951 32.326 4.84951H29.3131C29.3131 5.10159 29.3371 5.32966 29.3851 5.53372C29.4331 5.73779 29.5171 5.91784 29.6372 6.06188C29.7572 6.20593 29.9133 6.32597 30.1053 6.398C30.2974 6.48202 30.5255 6.51803 30.8015 6.51803C31.0176 6.51803 31.2097 6.49402 31.3777 6.47001C31.5458 6.434 31.6898 6.39799 31.8219 6.34998C31.9419 6.30196 32.0499 6.26595 32.134 6.22994C32.218 6.19393 32.278 6.18193 32.314 6.18193C32.338 6.18193 32.362 6.18192 32.374 6.19392C32.398 6.19392 32.41 6.21793 32.4221 6.24194C32.4221 6.26595 32.4341 6.30196 32.4461 6.33797C32.4461 6.38599 32.4461 6.434 32.4461 6.49402C32.4461 6.54203 32.4461 6.57805 32.4461 6.61406C32.4461 6.65007 32.4461 6.67408 32.4341 6.69809C32.4341 6.7221 32.4221 6.7461 32.41 6.77011C32.41 6.79412 32.386 6.80612 32.362 6.83013C32.338 6.85414 32.29 6.87814 32.194 6.92615C32.098 6.97417 31.9779 7.01019 31.8339 7.0462C31.6898 7.08221 31.5218 7.11822 31.3297 7.15423C31.1377 7.19024 30.9336 7.20224 30.7175 7.20224C30.3454 7.20224 30.0093 7.15423 29.7212 7.0462C29.4331 6.93816 29.193 6.78211 29.001 6.57804C28.8089 6.37398 28.6649 6.10991 28.5568 5.79781C28.4608 5.48571 28.4128 5.12559 28.4128 4.70546C28.4128 4.28533 28.4608 3.96123 28.5689 3.63713C28.6769 3.32503 28.8209 3.06095 29.013 2.83288C29.205 2.61682 29.4331 2.44877 29.7092 2.32873C29.9853 2.20869 30.2854 2.14867 30.6215 2.14867C30.9816 2.14867 31.2937 2.20869 31.5458 2.31672C31.7979 2.43676 32.0019 2.59281 32.17 2.78487C32.338 2.97693 32.4581 3.205 32.5301 3.46908C32.6021 3.73316 32.6501 4.00924 32.6501 4.30934V4.46539V4.47739ZM27.2604 6.97417C27.2604 6.97417 27.2604 7.02219 27.2364 7.0462C27.2244 7.07021 27.2004 7.0822 27.1764 7.0942C27.1404 7.10621 27.1044 7.11822 27.0444 7.13022C26.9844 7.13022 26.9243 7.13022 26.8403 7.13022C26.7563 7.13022 26.6963 7.13022 26.6362 7.13022C26.5762 7.13022 26.5402 7.11821 26.5042 7.0942C26.4682 7.0822 26.4442 7.07021 26.4322 7.0462C26.4322 7.02219 26.4202 7.01018 26.4202 6.97417V0.156045C26.4202 0.156045 26.4202 0.108033 26.4322 0.0840258C26.4322 0.0600183 26.4682 0.0480135 26.5042 0.0360098C26.5402 0.024006 26.5762 0.0120037 26.6362 0C26.6963 0 26.7563 0 26.8403 0C26.9243 0 26.9964 0 27.0444 0C27.1044 0 27.1404 0.0120023 27.1764 0.0360098C27.2004 0.0480135 27.2244 0.0720221 27.2364 0.0840258C27.2484 0.108033 27.2604 0.132038 27.2604 0.156045V6.97417ZM24.2715 4.22531C24.2715 3.78117 24.1875 3.43307 23.9834 3.18099C23.7794 2.92891 23.4673 2.80887 23.0711 2.80887C22.8671 2.80887 22.687 2.84489 22.531 2.92892C22.3749 3.01294 22.2429 3.10896 22.1348 3.24101C22.0268 3.37305 21.9428 3.5171 21.8948 3.69715C21.8348 3.86521 21.7987 4.04526 21.7987 4.23732H24.2835L24.2715 4.22531ZM25.1238 4.47739C25.1238 4.60943 25.0878 4.70547 25.0277 4.76549C24.9557 4.8255 24.8837 4.84951 24.7997 4.84951H21.7867C21.7867 5.10159 21.8107 5.32966 21.8588 5.53372C21.9068 5.73779 21.9908 5.91784 22.1108 6.06188C22.2309 6.20593 22.3869 6.32597 22.579 6.398C22.771 6.48202 22.9991 6.51803 23.2752 6.51803C23.4913 6.51803 23.6833 6.49402 23.8514 6.47001C24.0194 6.434 24.1635 6.39799 24.2955 6.34998C24.4156 6.30196 24.5236 6.26595 24.6076 6.22994C24.6916 6.19393 24.7517 6.18193 24.7877 6.18193C24.8117 6.18193 24.8357 6.18192 24.8477 6.19392C24.8717 6.19392 24.8837 6.21793 24.8957 6.24194C24.8957 6.26595 24.9077 6.30196 24.9197 6.33797C24.9197 6.38599 24.9197 6.434 24.9197 6.49402C24.9197 6.54203 24.9197 6.57805 24.9197 6.61406C24.9197 6.65007 24.9197 6.67408 24.9077 6.69809C24.9077 6.7221 24.8957 6.7461 24.8837 6.77011C24.8717 6.79412 24.8597 6.80612 24.8357 6.83013C24.8117 6.85414 24.7637 6.87814 24.6676 6.92615C24.5716 6.97417 24.4516 7.01019 24.3075 7.0462C24.1635 7.08221 23.9954 7.11822 23.8034 7.15423C23.6113 7.19024 23.4072 7.20224 23.1912 7.20224C22.8191 7.20224 22.483 7.15423 22.1949 7.0462C21.9068 6.93816 21.6667 6.78211 21.4746 6.57804C21.2826 6.37398 21.1385 6.10991 21.0305 5.79781C20.9345 5.48571 20.8865 5.12559 20.8865 4.70546C20.8865 4.28533 20.9345 3.96123 21.0425 3.63713C21.1385 3.32503 21.2946 3.06095 21.4866 2.83288C21.6787 2.61682 21.9068 2.44877 22.1829 2.32873C22.4589 2.20869 22.759 2.14867 23.0951 2.14867C23.4553 2.14867 23.7674 2.20869 24.0194 2.31672C24.2715 2.43676 24.4756 2.59281 24.6436 2.78487C24.8117 2.97693 24.9317 3.205 25.0037 3.46908C25.0758 3.73316 25.1238 4.00924 25.1238 4.30934V4.46539V4.47739ZM20.3463 2.36474C20.3463 2.36474 20.3463 2.38875 20.3463 2.41275C20.3463 2.42476 20.3463 2.44876 20.3463 2.46076C20.3463 2.47276 20.3463 2.49678 20.3343 2.52078C20.3343 2.54479 20.3343 2.5688 20.3223 2.5928L18.7498 6.96216C18.7498 6.96216 18.7138 7.03419 18.7018 7.0582C18.6778 7.0822 18.6418 7.10621 18.6057 7.11822C18.5577 7.13022 18.5097 7.14222 18.4377 7.14222C18.3657 7.14222 18.2816 7.14222 18.1856 7.14222C18.0896 7.14222 17.9936 7.14222 17.9335 7.14222C17.8615 7.14222 17.8135 7.13022 17.7655 7.10621C17.7175 7.09421 17.6935 7.07021 17.6695 7.0462C17.6454 7.02219 17.6214 6.99817 17.6094 6.96216L16.049 2.5928C16.049 2.5928 16.0249 2.52078 16.0129 2.48477C16.0129 2.44876 16.0009 2.43676 16.0009 2.41275C16.0009 2.40075 16.0009 2.38874 16.0009 2.37674C16.0009 2.35273 16.0009 2.32872 16.0249 2.30472C16.0369 2.28071 16.061 2.2687 16.097 2.2567C16.133 2.2567 16.169 2.2327 16.229 2.2327C16.277 2.2327 16.349 2.2327 16.4211 2.2327C16.5171 2.2327 16.6011 2.2327 16.6611 2.2327C16.7212 2.2327 16.7692 2.2447 16.7932 2.2567C16.8292 2.2687 16.8532 2.29271 16.8652 2.30472C16.8772 2.32872 16.8892 2.35273 16.9132 2.37674L18.2096 6.15791L18.2336 6.21794V6.15791L19.53 2.37674C19.53 2.34072 19.554 2.31672 19.566 2.30472C19.5781 2.28071 19.6021 2.2687 19.6381 2.2567C19.6741 2.2447 19.7101 2.2327 19.7701 2.2327C19.8301 2.2327 19.9022 2.2327 19.9862 2.2327C20.0582 2.2327 20.1302 2.2327 20.1782 2.2327C20.2263 2.2327 20.2743 2.23269 20.2983 2.2567C20.3223 2.2687 20.3463 2.28071 20.3583 2.30472C20.3583 2.32872 20.3823 2.34072 20.3823 2.37674L20.3463 2.36474ZM14.4525 4.22531C14.4525 3.78117 14.3684 3.43307 14.1644 3.18099C13.9603 2.92891 13.6482 2.80887 13.2521 2.80887C13.048 2.80887 12.868 2.84489 12.7119 2.92892C12.5559 3.01294 12.4238 3.10896 12.3158 3.24101C12.2078 3.37305 12.1237 3.5171 12.0757 3.69715C12.0157 3.86521 11.9797 4.04526 11.9797 4.23732H14.4645L14.4525 4.22531ZM15.2927 4.47739C15.2927 4.60943 15.2567 4.70547 15.1967 4.76549C15.1247 4.8255 15.0526 4.84951 14.9686 4.84951H11.9557C11.9557 5.10159 11.9797 5.32966 12.0277 5.53372C12.0757 5.73779 12.1597 5.91784 12.2798 6.06188C12.3998 6.20593 12.5559 6.32597 12.7479 6.398C12.94 6.48202 13.1681 6.51803 13.4441 6.51803C13.6602 6.51803 13.8523 6.49402 14.0203 6.47001C14.1884 6.434 14.3324 6.39799 14.4645 6.34998C14.5845 6.30196 14.6925 6.26595 14.7766 6.22994C14.8606 6.19393 14.9206 6.18193 14.9566 6.18193C14.9806 6.18193 15.0046 6.18192 15.0166 6.19392C15.0406 6.19392 15.0526 6.21793 15.0646 6.24194C15.0646 6.26595 15.0766 6.30196 15.0887 6.33797C15.0887 6.38599 15.0887 6.434 15.0887 6.49402C15.0887 6.54203 15.0887 6.57805 15.0887 6.61406C15.0887 6.65007 15.0887 6.67408 15.0766 6.69809C15.0766 6.7221 15.0646 6.7461 15.0526 6.77011C15.0526 6.79412 15.0286 6.80612 15.0046 6.83013C14.9806 6.85414 14.9326 6.87814 14.8366 6.92615C14.7405 6.97417 14.6205 7.01019 14.4765 7.0462C14.3324 7.08221 14.1644 7.11822 13.9723 7.15423C13.7802 7.19024 13.5762 7.20224 13.3601 7.20224C12.988 7.20224 12.6519 7.15423 12.3638 7.0462C12.0757 6.93816 11.8356 6.78211 11.6436 6.57804C11.4515 6.37398 11.3075 6.10991 11.1994 5.79781C11.1034 5.48571 11.0554 5.12559 11.0554 4.70546C11.0554 4.28533 11.1034 3.96123 11.2114 3.63713C11.3075 3.32503 11.4635 3.06095 11.6556 2.83288C11.8476 2.61682 12.0757 2.44877 12.3518 2.32873C12.6279 2.20869 12.928 2.14867 13.2641 2.14867C13.6242 2.14867 13.9363 2.20869 14.1884 2.31672C14.4405 2.43676 14.6445 2.59281 14.8126 2.78487C14.9806 2.97693 15.1007 3.205 15.1727 3.46908C15.2447 3.73316 15.2927 4.00924 15.2927 4.30934V4.46539V4.47739ZM10.2752 6.71009C10.2752 6.78211 10.2752 6.83012 10.2752 6.87814C10.2752 6.92615 10.2632 6.96217 10.2391 6.99818C10.2271 7.03419 10.2031 7.0582 10.1791 7.0702C10.1551 7.08221 10.1311 7.0942 10.0951 7.0942H7.17819C7.09416 7.0942 7.02214 7.0702 6.96212 7.01018C6.8901 6.96216 6.85409 6.86614 6.85409 6.7341V0.62419C6.85409 0.62419 6.85409 0.576178 6.8781 0.552171C6.8901 0.528163 6.91411 0.516159 6.95012 0.504155C6.98613 0.504155 7.03414 0.480149 7.08216 0.468145C7.14218 0.468145 7.2142 0.456139 7.28622 0.456139C7.35825 0.456139 7.44227 0.456141 7.50229 0.468145C7.56231 0.468145 7.59832 0.492151 7.63433 0.504155C7.67034 0.504155 7.69435 0.528163 7.70635 0.552171C7.71836 0.576178 7.73036 0.600183 7.73036 0.62419V6.33797H10.0951C10.0951 6.33797 10.1551 6.33797 10.1791 6.36198C10.2031 6.37398 10.2151 6.39799 10.2391 6.422C10.2511 6.44601 10.2632 6.49402 10.2752 6.54203C10.2752 6.59005 10.2752 6.65007 10.2752 6.71009Z" fill="var(--fill-0, white)"/>
<path id="Vector_2" d="M58.1342 73.0911H13.8884C11.0915 73.0911 8.79883 70.7984 8.79883 68.0015V23.7317C8.79883 20.9348 11.0915 18.6421 13.8884 18.6421H58.1462C60.9431 18.6421 63.2358 20.9348 63.2358 23.7317V68.0015C63.2358 70.7984 60.9431 73.0911 58.1462 73.0911" fill="var(--fill-0, #231916)"/>
<path id="Subtract" fill-rule="evenodd" clip-rule="evenodd" d="M16.2171 70.7256H55.8774C58.6743 70.7256 60.967 68.4329 60.967 65.636V25.9637C60.967 23.1668 58.6743 20.8741 55.8774 20.8741H16.2171C13.4202 20.8741 11.1275 23.1668 11.1275 25.9637V65.636C11.1275 68.4329 13.4202 70.7256 16.2171 70.7256ZM16.0008 68.4816H56.0933C57.5458 68.4816 58.7342 67.2932 58.7342 65.8408V25.7363C58.7342 24.2839 57.5458 23.0955 56.0933 23.0955H16.0008C14.5484 23.0955 13.36 24.2839 13.36 25.7363V65.8408C13.36 67.2932 14.5484 68.4816 16.0008 68.4816Z" fill="var(--fill-0, white)"/>
<path id="Vector_3" d="M43.3096 54.8813L52.0243 54.7132L51.6642 45.6504L48.3992 48.9875L42.5054 43.7058L40.3567 46.0945L46.3226 51.4242L43.3096 54.8813Z" fill="var(--fill-0, white)"/>
<path id="Vector_4" d="M17.5855 61.6507V56.129V54.9886H15.3408V64.2555H54.0769V61.6507H17.5855Z" fill="var(--fill-0, white)"/>
<path id="Vector_5" d="M18.7738 57.2455C19.41 57.2455 19.9261 56.7294 19.9261 56.0932L20.5383 56.9215L47.4147 35.6628L46.1543 34.2704C46.4904 34.1984 46.7545 33.9703 46.8625 33.6582L52.7804 28.8927L51.9881 27.9204L46.0463 32.3258C46.0463 32.3258 45.9622 32.3018 45.9142 32.3018C45.4101 32.3018 45.0139 32.6739 44.9419 33.154L18.3296 53.9565L19.1339 55.0489C19.0138 55.0128 18.9058 54.9768 18.7738 54.9768C18.1376 54.9768 17.6214 55.493 17.6214 56.1292C17.6214 56.7654 18.1376 57.2816 18.7738 57.2816" fill="var(--fill-0, white)"/>
</g>
</g>
</svg>
