<svg width="72" height="72" viewBox="5 12 62 60" fill="none" xmlns="http://www.w3.org/2000/svg">
<path d="M55.6851 69.022H16.2648C12.1355 69.022 8.76249 65.6249 8.76249 61.4836V22.1234C8.76249 17.9701 12.1355 14.585 16.2648 14.585H55.6851C59.8144 14.585 63.1874 17.9821 63.1874 22.1234V61.4836C63.1874 65.6369 59.8024 69.022 55.6851 69.022Z" fill="#231916"/>
<path d="M53.3924 66.8373H18.5695C14.4403 66.8373 11.0672 63.4402 11.0672 59.2989V24.188C11.0672 20.0467 14.4403 16.6497 18.5695 16.6497H53.3924C57.5217 16.6497 60.8947 20.0467 60.8947 24.188V59.2989C60.8947 63.4522 57.5217 66.8373 53.3924 66.8373Z" fill="white"/>
<path d="M54.6288 64.4125H17.4412C15.1965 64.4125 13.3599 62.564 13.3599 60.3072V23.0716C13.3599 20.8149 15.1965 18.9664 17.4412 18.9664H54.6288C56.8735 18.9664 58.7221 20.8149 58.7221 23.0716V60.3072C58.7221 62.564 56.8855 64.4125 54.6288 64.4125Z" fill="#231916"/>
<path d="M54.8208 42.1336H31.4015V58.1946H54.8208V42.1336Z" fill="white"/>
<path d="M28.1125 26.0726C14.8484 25.1123 17.3932 42.1336 17.3932 42.1336H21.3544V36.0357C21.3544 36.0357 20.7902 30.2019 27.2362 30.0458C27.7044 30.0458 32.6139 29.6977 33.01 36.0957V42.1456H36.9713C38.9639 26.0846 29.3489 26.4807 28.1245 26.0846" fill="white"/>
</svg>
